<mxfile host="65bd71144e">
    <diagram id="2GVUBC6I9bcwQrD93eks" name="Страница 1">
        <mxGraphModel dx="1098" dy="2776" grid="1" gridSize="10" guides="1" tooltips="1" connect="1" arrows="1" fold="1" page="1" pageScale="1" pageWidth="827" pageHeight="1169" math="0" shadow="0">
            <root>
                <mxCell id="0"/>
                <mxCell id="1" parent="0"/>
                <mxCell id="4" value="" style="edgeStyle=none;html=1;entryX=0.5;entryY=0;entryDx=0;entryDy=0;" edge="1" parent="1" source="2" target="5">
                    <mxGeometry relative="1" as="geometry">
                        <mxPoint x="110" y="-2250" as="targetPoint"/>
                    </mxGeometry>
                </mxCell>
                <mxCell id="2" value="Start" style="ellipse;whiteSpace=wrap;html=1;" vertex="1" parent="1">
                    <mxGeometry x="115" y="-2330" width="90" height="40" as="geometry"/>
                </mxCell>
                <mxCell id="8" style="edgeStyle=none;html=1;entryX=0.5;entryY=0;entryDx=0;entryDy=0;fontFamily=Helvetica;fontSize=6;" edge="1" parent="1" source="5" target="7">
                    <mxGeometry relative="1" as="geometry"/>
                </mxCell>
                <mxCell id="5" value="&lt;span style=&quot;font-size: 12px&quot;&gt;stringArray = [&quot;hello&quot;, &quot;2&quot;, &quot;world&quot;, &quot;:-)&quot;]&lt;/span&gt;" style="rounded=0;whiteSpace=wrap;html=1;fontFamily=Helvetica;fontSize=10;" vertex="1" parent="1">
                    <mxGeometry x="67.5" y="-2270" width="185" height="60" as="geometry"/>
                </mxCell>
                <mxCell id="36" style="edgeStyle=none;html=1;entryX=0.5;entryY=0;entryDx=0;entryDy=0;fontFamily=Helvetica;fontSize=6;" edge="1" parent="1" source="7" target="17">
                    <mxGeometry relative="1" as="geometry"/>
                </mxCell>
                <mxCell id="7" value="PrintStringArray(stringArray)" style="shape=process;whiteSpace=wrap;html=1;backgroundOutline=1;" vertex="1" parent="1">
                    <mxGeometry x="55" y="-2180" width="210" height="40" as="geometry"/>
                </mxCell>
                <mxCell id="9" value="" style="edgeStyle=none;html=1;startArrow=none;" edge="1" parent="1" source="17" target="11">
                    <mxGeometry relative="1" as="geometry"/>
                </mxCell>
                <mxCell id="10" value="" style="edgeStyle=none;html=1;entryX=0.5;entryY=0;entryDx=0;entryDy=0;" edge="1" parent="1" source="11" target="13">
                    <mxGeometry relative="1" as="geometry">
                        <mxPoint x="146.9230769230769" y="-2000" as="targetPoint"/>
                    </mxGeometry>
                </mxCell>
                <mxCell id="11" value="sizeNewArray = SearchStringLenghtMin3(stringArray)" style="shape=process;whiteSpace=wrap;html=1;backgroundOutline=1;size=0.0625;" vertex="1" parent="1">
                    <mxGeometry y="-2060" width="320" height="60" as="geometry"/>
                </mxCell>
                <mxCell id="12" value="" style="edgeStyle=none;html=1;" edge="1" parent="1" source="13" target="15">
                    <mxGeometry relative="1" as="geometry"/>
                </mxCell>
                <mxCell id="13" value="&lt;span&gt;newStringArray = CreateArrayWith&lt;/span&gt;LenghtMin3&lt;span&gt;&amp;nbsp;(stringArray, sizeNewArray)&lt;/span&gt;" style="shape=process;whiteSpace=wrap;html=1;backgroundOutline=1;size=0.0625;" vertex="1" parent="1">
                    <mxGeometry y="-1980" width="320" height="60" as="geometry"/>
                </mxCell>
                <mxCell id="14" value="" style="edgeStyle=none;html=1;exitX=0.5;exitY=1;exitDx=0;exitDy=0;entryX=0.5;entryY=0;entryDx=0;entryDy=0;" edge="1" parent="1" source="15" target="16">
                    <mxGeometry relative="1" as="geometry">
                        <mxPoint x="159.99999999999977" y="-1850" as="targetPoint"/>
                    </mxGeometry>
                </mxCell>
                <mxCell id="15" value="PrintArray (newStringArray)" style="shape=process;whiteSpace=wrap;html=1;backgroundOutline=1;size=0.0625;" vertex="1" parent="1">
                    <mxGeometry y="-1900" width="320" height="40" as="geometry"/>
                </mxCell>
                <mxCell id="16" value="end" style="ellipse;whiteSpace=wrap;html=1;" vertex="1" parent="1">
                    <mxGeometry x="130" y="-1840" width="60" height="40" as="geometry"/>
                </mxCell>
                <mxCell id="17" value="- &amp;gt;" style="shape=parallelogram;perimeter=parallelogramPerimeter;whiteSpace=wrap;html=1;fixedSize=1;" vertex="1" parent="1">
                    <mxGeometry x="100" y="-2110" width="120" height="30" as="geometry"/>
                </mxCell>
                <mxCell id="37" value="" style="edgeStyle=none;html=1;" edge="1" parent="1" source="38" target="39">
                    <mxGeometry relative="1" as="geometry"/>
                </mxCell>
                <mxCell id="38" value="sizeNewArray = SearchStringLenghtMin(stringArray)" style="shape=process;whiteSpace=wrap;html=1;backgroundOutline=1;size=0.0625;" vertex="1" parent="1">
                    <mxGeometry x="400" y="-2252" width="280" height="60" as="geometry"/>
                </mxCell>
                <mxCell id="39" value="numberOfStrings = 0;&lt;br&gt;i = 0;" style="whiteSpace=wrap;html=1;" vertex="1" parent="1">
                    <mxGeometry x="440" y="-2175" width="200" height="43" as="geometry"/>
                </mxCell>
                <mxCell id="40" value="" style="edgeStyle=none;html=1;exitX=0.5;exitY=1;exitDx=0;exitDy=0;" edge="1" parent="1" source="39" target="43">
                    <mxGeometry relative="1" as="geometry">
                        <mxPoint x="540" y="-2027" as="sourcePoint"/>
                    </mxGeometry>
                </mxCell>
                <mxCell id="41" value="" style="edgeStyle=none;html=1;" edge="1" parent="1" source="43" target="44">
                    <mxGeometry relative="1" as="geometry"/>
                </mxCell>
                <mxCell id="42" style="edgeStyle=none;html=1;" edge="1" parent="1" target="52">
                    <mxGeometry relative="1" as="geometry">
                        <mxPoint x="621" y="-1697" as="targetPoint"/>
                        <mxPoint x="630" y="-2076.9999999999995" as="sourcePoint"/>
                        <Array as="points">
                            <mxPoint x="690" y="-2077"/>
                            <mxPoint x="690" y="-1790"/>
                        </Array>
                    </mxGeometry>
                </mxCell>
                <mxCell id="43" value="i = 0; i &amp;lt;stringArray.Length; i++" style="shape=hexagon;perimeter=hexagonPerimeter2;whiteSpace=wrap;html=1;fixedSize=1;" vertex="1" parent="1">
                    <mxGeometry x="450" y="-2107" width="180" height="60" as="geometry"/>
                </mxCell>
                <mxCell id="44" value="stringArray[i].Length&amp;nbsp; &amp;lt; 4" style="rhombus;whiteSpace=wrap;html=1;" vertex="1" parent="1">
                    <mxGeometry x="450" y="-2020" width="180" height="80" as="geometry"/>
                </mxCell>
                <mxCell id="45" style="edgeStyle=none;html=1;" edge="1" parent="1" source="46">
                    <mxGeometry relative="1" as="geometry">
                        <mxPoint x="450" y="-2076.9999999999995" as="targetPoint"/>
                        <Array as="points">
                            <mxPoint x="390" y="-1870"/>
                            <mxPoint x="390" y="-2077"/>
                        </Array>
                    </mxGeometry>
                </mxCell>
                <mxCell id="46" value="numberOfStrings++" style="whiteSpace=wrap;html=1;" vertex="1" parent="1">
                    <mxGeometry x="480" y="-1900" width="120" height="60" as="geometry"/>
                </mxCell>
                <mxCell id="47" value="" style="endArrow=classic;html=1;entryX=0.5;entryY=0;entryDx=0;entryDy=0;exitX=0.5;exitY=1;exitDx=0;exitDy=0;" edge="1" parent="1" source="44" target="46">
                    <mxGeometry relative="1" as="geometry">
                        <mxPoint x="490" y="-1887" as="sourcePoint"/>
                        <mxPoint x="590" y="-1887" as="targetPoint"/>
                    </mxGeometry>
                </mxCell>
                <mxCell id="48" value="yes" style="edgeLabel;resizable=0;html=1;align=center;verticalAlign=middle;" connectable="0" vertex="1" parent="47">
                    <mxGeometry relative="1" as="geometry"/>
                </mxCell>
                <mxCell id="49" value="" style="endArrow=classic;html=1;entryX=0;entryY=0.5;entryDx=0;entryDy=0;exitX=0;exitY=0.5;exitDx=0;exitDy=0;" edge="1" parent="1" source="44" target="43">
                    <mxGeometry relative="1" as="geometry">
                        <mxPoint x="470" y="-2007" as="sourcePoint"/>
                        <mxPoint x="600" y="-2017" as="targetPoint"/>
                        <Array as="points">
                            <mxPoint x="390" y="-1980"/>
                            <mxPoint x="390" y="-1997"/>
                            <mxPoint x="390" y="-2077"/>
                        </Array>
                    </mxGeometry>
                </mxCell>
                <mxCell id="50" value="No" style="edgeLabel;resizable=0;html=1;align=center;verticalAlign=middle;" connectable="0" vertex="1" parent="49">
                    <mxGeometry relative="1" as="geometry"/>
                </mxCell>
                <mxCell id="51" value="" style="edgeStyle=none;html=1;" edge="1" parent="1" source="52" target="55">
                    <mxGeometry relative="1" as="geometry"/>
                </mxCell>
                <mxCell id="52" value="return numberOfStrings" style="shape=parallelogram;perimeter=parallelogramPerimeter;whiteSpace=wrap;html=1;fixedSize=1;" vertex="1" parent="1">
                    <mxGeometry x="460" y="-1820" width="160" height="60" as="geometry"/>
                </mxCell>
                <mxCell id="53" value="" style="edgeStyle=none;html=1;" edge="1" parent="1" source="54" target="38">
                    <mxGeometry relative="1" as="geometry">
                        <mxPoint x="540" y="-2255" as="targetPoint"/>
                    </mxGeometry>
                </mxCell>
                <mxCell id="54" value="Start" style="ellipse;whiteSpace=wrap;html=1;" vertex="1" parent="1">
                    <mxGeometry x="492.5" y="-2330" width="95" height="50" as="geometry"/>
                </mxCell>
                <mxCell id="55" value="end" style="ellipse;whiteSpace=wrap;html=1;" vertex="1" parent="1">
                    <mxGeometry x="500" y="-1748" width="80" height="48" as="geometry"/>
                </mxCell>
                <mxCell id="56" value="" style="edgeStyle=none;html=1;" edge="1" parent="1" source="57" target="59">
                    <mxGeometry relative="1" as="geometry"/>
                </mxCell>
                <mxCell id="57" value="Start" style="ellipse;whiteSpace=wrap;html=1;" vertex="1" parent="1">
                    <mxGeometry x="810" y="-2330" width="120" height="60" as="geometry"/>
                </mxCell>
                <mxCell id="58" value="" style="edgeStyle=none;html=1;" edge="1" parent="1" source="59" target="61">
                    <mxGeometry relative="1" as="geometry"/>
                </mxCell>
                <mxCell id="59" value="CreateArrayWithLenghtMin3 =&amp;nbsp;&lt;span&gt;&lt;br&gt;(stringArray, sizeNewArray)&lt;/span&gt;" style="shape=process;whiteSpace=wrap;html=1;backgroundOutline=1;" vertex="1" parent="1">
                    <mxGeometry x="740" y="-2250" width="260" height="60" as="geometry"/>
                </mxCell>
                <mxCell id="60" value="" style="edgeStyle=none;html=1;" edge="1" parent="1" source="61" target="64">
                    <mxGeometry relative="1" as="geometry"/>
                </mxCell>
                <mxCell id="61" value="string[] newStringArray = new string [sizeNewArray]&lt;br&gt;j = 0" style="whiteSpace=wrap;html=1;" vertex="1" parent="1">
                    <mxGeometry x="730" y="-2160" width="280" height="60" as="geometry"/>
                </mxCell>
                <mxCell id="62" value="" style="edgeStyle=none;html=1;" edge="1" parent="1" source="64" target="65">
                    <mxGeometry relative="1" as="geometry"/>
                </mxCell>
                <mxCell id="63" style="edgeStyle=none;html=1;" edge="1" parent="1" target="72">
                    <mxGeometry relative="1" as="geometry">
                        <mxPoint x="951" y="-1670" as="targetPoint"/>
                        <mxPoint x="959.9999999999998" y="-2050" as="sourcePoint"/>
                        <Array as="points">
                            <mxPoint x="1030" y="-2050"/>
                            <mxPoint x="1030" y="-1890"/>
                            <mxPoint x="1030" y="-1763"/>
                        </Array>
                    </mxGeometry>
                </mxCell>
                <mxCell id="64" value="i = 0; i &amp;lt;stringArray.Length; i++" style="shape=hexagon;perimeter=hexagonPerimeter2;whiteSpace=wrap;html=1;fixedSize=1;" vertex="1" parent="1">
                    <mxGeometry x="780" y="-2080" width="180" height="60" as="geometry"/>
                </mxCell>
                <mxCell id="65" value="stringArray[i].Length&amp;nbsp; &amp;lt; 4" style="rhombus;whiteSpace=wrap;html=1;" vertex="1" parent="1">
                    <mxGeometry x="760" y="-2000" width="220" height="100" as="geometry"/>
                </mxCell>
                <mxCell id="66" style="edgeStyle=none;html=1;" edge="1" parent="1" source="67">
                    <mxGeometry relative="1" as="geometry">
                        <mxPoint x="779.9999999999998" y="-2050" as="targetPoint"/>
                        <Array as="points">
                            <mxPoint x="720" y="-1840"/>
                            <mxPoint x="720" y="-2050"/>
                        </Array>
                    </mxGeometry>
                </mxCell>
                <mxCell id="67" value="newStringArray[j] = stringArray[i]&lt;br&gt;j++" style="whiteSpace=wrap;html=1;" vertex="1" parent="1">
                    <mxGeometry x="740" y="-1870" width="260" height="50" as="geometry"/>
                </mxCell>
                <mxCell id="68" value="" style="endArrow=classic;html=1;entryX=0.5;entryY=0;entryDx=0;entryDy=0;exitX=0.5;exitY=1;exitDx=0;exitDy=0;" edge="1" parent="1" source="65" target="67">
                    <mxGeometry relative="1" as="geometry">
                        <mxPoint x="820" y="-1860" as="sourcePoint"/>
                        <mxPoint x="920" y="-1860" as="targetPoint"/>
                    </mxGeometry>
                </mxCell>
                <mxCell id="69" value="yes" style="edgeLabel;resizable=0;html=1;align=center;verticalAlign=middle;" connectable="0" vertex="1" parent="68">
                    <mxGeometry relative="1" as="geometry"/>
                </mxCell>
                <mxCell id="70" value="" style="endArrow=classic;html=1;entryX=0;entryY=0.5;entryDx=0;entryDy=0;exitX=0;exitY=0.5;exitDx=0;exitDy=0;" edge="1" parent="1" source="65" target="64">
                    <mxGeometry relative="1" as="geometry">
                        <mxPoint x="800" y="-1980" as="sourcePoint"/>
                        <mxPoint x="930" y="-1990" as="targetPoint"/>
                        <Array as="points">
                            <mxPoint x="720" y="-1950"/>
                            <mxPoint x="720" y="-1970"/>
                            <mxPoint x="720" y="-2050"/>
                        </Array>
                    </mxGeometry>
                </mxCell>
                <mxCell id="71" value="No" style="edgeLabel;resizable=0;html=1;align=center;verticalAlign=middle;" connectable="0" vertex="1" parent="70">
                    <mxGeometry relative="1" as="geometry"/>
                </mxCell>
                <mxCell id="72" value="return newStringArray" style="shape=parallelogram;perimeter=parallelogramPerimeter;whiteSpace=wrap;html=1;fixedSize=1;" vertex="1" parent="1">
                    <mxGeometry x="775" y="-1783" width="190" height="40" as="geometry"/>
                </mxCell>
                <mxCell id="73" value="" style="edgeStyle=none;html=1;exitX=0.5;exitY=1;exitDx=0;exitDy=0;" edge="1" parent="1" target="74" source="72">
                    <mxGeometry relative="1" as="geometry">
                        <mxPoint x="869.9999999999998" y="-1730" as="sourcePoint"/>
                    </mxGeometry>
                </mxCell>
                <mxCell id="74" value="end" style="ellipse;whiteSpace=wrap;html=1;" vertex="1" parent="1">
                    <mxGeometry x="830" y="-1725" width="80" height="38" as="geometry"/>
                </mxCell>
                <mxCell id="75" value="" style="edgeStyle=none;html=1;" edge="1" parent="1" source="76" target="78">
                    <mxGeometry relative="1" as="geometry"/>
                </mxCell>
                <mxCell id="76" value="Start" style="ellipse;whiteSpace=wrap;html=1;" vertex="1" parent="1">
                    <mxGeometry x="1170" y="-2330" width="120" height="60" as="geometry"/>
                </mxCell>
                <mxCell id="77" value="" style="edgeStyle=none;html=1;entryX=0.5;entryY=0;entryDx=0;entryDy=0;startArrow=none;" edge="1" parent="1" source="90" target="82">
                    <mxGeometry relative="1" as="geometry">
                        <mxPoint x="1230" y="-2150" as="targetPoint"/>
                    </mxGeometry>
                </mxCell>
                <mxCell id="78" value="PrintStringArray(StringArray)" style="shape=process;whiteSpace=wrap;html=1;backgroundOutline=1;size=0.05;" vertex="1" parent="1">
                    <mxGeometry x="1100" y="-2250" width="260" height="60" as="geometry"/>
                </mxCell>
                <mxCell id="79" value="" style="edgeStyle=none;html=1;startArrow=none;" edge="1" parent="1" source="92" target="83">
                    <mxGeometry relative="1" as="geometry"/>
                </mxCell>
                <mxCell id="80" style="edgeStyle=none;html=1;exitX=0.5;exitY=1;exitDx=0;exitDy=0;entryX=1;entryY=0.5;entryDx=0;entryDy=0;startArrow=none;" edge="1" parent="1" target="87" source="95">
                    <mxGeometry relative="1" as="geometry">
                        <mxPoint x="1310" y="-1728" as="targetPoint"/>
                        <mxPoint x="1320" y="-2040" as="sourcePoint"/>
                        <Array as="points">
                            <mxPoint x="1375" y="-1781"/>
                        </Array>
                    </mxGeometry>
                </mxCell>
                <mxCell id="81" value="" style="edgeStyle=none;html=1;" edge="1" parent="1" source="82" target="92">
                    <mxGeometry relative="1" as="geometry"/>
                </mxCell>
                <mxCell id="82" value="i = 0; i &amp;lt;StringArray.Length; i++" style="shape=hexagon;perimeter=hexagonPerimeter2;whiteSpace=wrap;html=1;fixedSize=1;" vertex="1" parent="1">
                    <mxGeometry x="1120" y="-2110" width="220" height="60" as="geometry"/>
                </mxCell>
                <mxCell id="83" value="i == stringArray.Length -1" style="rhombus;whiteSpace=wrap;html=1;" vertex="1" parent="1">
                    <mxGeometry x="1140" y="-1960" width="180" height="50" as="geometry"/>
                </mxCell>
                <mxCell id="84" value="newStringArray[j] = stringArray[i]&lt;br&gt;j++" style="whiteSpace=wrap;html=1;" vertex="1" parent="1">
                    <mxGeometry x="1100" y="-1880" width="260" height="60" as="geometry"/>
                </mxCell>
                <mxCell id="85" value="" style="endArrow=classic;html=1;entryX=0.5;entryY=0;entryDx=0;entryDy=0;exitX=0.5;exitY=1;exitDx=0;exitDy=0;" edge="1" parent="1" source="83" target="84">
                    <mxGeometry relative="1" as="geometry">
                        <mxPoint x="1180" y="-1850" as="sourcePoint"/>
                        <mxPoint x="1280" y="-1850" as="targetPoint"/>
                        <Array as="points"/>
                    </mxGeometry>
                </mxCell>
                <mxCell id="86" value="no" style="edgeLabel;resizable=0;html=1;align=center;verticalAlign=middle;" connectable="0" vertex="1" parent="85">
                    <mxGeometry relative="1" as="geometry"/>
                </mxCell>
                <mxCell id="87" value="return newStringArray" style="shape=parallelogram;perimeter=parallelogramPerimeter;whiteSpace=wrap;html=1;fixedSize=1;" vertex="1" parent="1">
                    <mxGeometry x="1130" y="-1800" width="190" height="37" as="geometry"/>
                </mxCell>
                <mxCell id="88" value="" style="edgeStyle=none;html=1;exitX=0.5;exitY=1;exitDx=0;exitDy=0;" edge="1" parent="1" target="89" source="87">
                    <mxGeometry relative="1" as="geometry">
                        <mxPoint x="1225" y="-1705" as="sourcePoint"/>
                    </mxGeometry>
                </mxCell>
                <mxCell id="89" value="end" style="ellipse;whiteSpace=wrap;html=1;" vertex="1" parent="1">
                    <mxGeometry x="1177.5" y="-1740.5" width="95" height="33" as="geometry"/>
                </mxCell>
                <mxCell id="90" value="&quot;[&quot;" style="shape=parallelogram;perimeter=parallelogramPerimeter;whiteSpace=wrap;html=1;fixedSize=1;" vertex="1" parent="1">
                    <mxGeometry x="1185" y="-2172" width="90" height="40" as="geometry"/>
                </mxCell>
                <mxCell id="91" value="" style="edgeStyle=none;html=1;entryX=0.5;entryY=0;entryDx=0;entryDy=0;endArrow=none;" edge="1" parent="1" source="78" target="90">
                    <mxGeometry relative="1" as="geometry">
                        <mxPoint x="1230" y="-2180" as="sourcePoint"/>
                        <mxPoint x="1230" y="-2070" as="targetPoint"/>
                    </mxGeometry>
                </mxCell>
                <mxCell id="92" value="&lt;span&gt;&quot;stringArray[i]&quot;&lt;/span&gt;" style="shape=parallelogram;perimeter=parallelogramPerimeter;whiteSpace=wrap;html=1;fixedSize=1;" vertex="1" parent="1">
                    <mxGeometry x="1170" y="-2010" width="120" height="30" as="geometry"/>
                </mxCell>
                <mxCell id="93" value="" style="endArrow=classic;html=1;entryX=0;entryY=0.5;entryDx=0;entryDy=0;exitX=0;exitY=0.5;exitDx=0;exitDy=0;" edge="1" parent="1" source="83" target="82">
                    <mxGeometry relative="1" as="geometry">
                        <mxPoint x="1040" y="-1885" as="sourcePoint"/>
                        <mxPoint x="1040" y="-1885" as="targetPoint"/>
                        <Array as="points">
                            <mxPoint x="1080" y="-1935"/>
                            <mxPoint x="1080" y="-1950"/>
                            <mxPoint x="1080" y="-2080"/>
                        </Array>
                    </mxGeometry>
                </mxCell>
                <mxCell id="94" value="Yes" style="edgeLabel;resizable=0;html=1;align=center;verticalAlign=middle;" connectable="0" vertex="1" parent="93">
                    <mxGeometry relative="1" as="geometry"/>
                </mxCell>
                <mxCell id="95" value="&quot;]&quot;" style="shape=parallelogram;perimeter=parallelogramPerimeter;whiteSpace=wrap;html=1;fixedSize=1;" vertex="1" parent="1">
                    <mxGeometry x="1330" y="-1980" width="90" height="30" as="geometry"/>
                </mxCell>
                <mxCell id="98" value="" style="edgeStyle=none;html=1;exitX=1;exitY=0.5;exitDx=0;exitDy=0;endArrow=none;" edge="1" parent="1" source="82" target="95">
                    <mxGeometry relative="1" as="geometry">
                        <mxPoint x="1310" y="-1781.5" as="targetPoint"/>
                        <mxPoint x="1340" y="-2080" as="sourcePoint"/>
                        <Array as="points">
                            <mxPoint x="1375" y="-2080"/>
                        </Array>
                    </mxGeometry>
                </mxCell>
            </root>
        </mxGraphModel>
    </diagram>
</mxfile>